 <svg version="1.0" xmlns="http://www.w3.org/2000/svg"  width="200.000000pt" height="200.000000pt" viewBox="0 0 200.000000 200.000000"  preserveAspectRatio="xMidYMid meet">  <g transform="translate(0.000000,200.000000) scale(0.100000,-0.100000)" fill="#000000" stroke="none"> <path d="M453 1803 c-9 -16 -18 -30 -20 -32 -2 -3 -16 8 -33 24 -34 33 -56 28 -65 -14 -6 -29 -9 -31 -48 -29 l-42 3 3 -42 c2 -39 0 -42 -29 -48 -42 -9 -47 -31 -14 -65 16 -17 27 -31 24 -33 -2 -2 -16 -11 -31 -20 -36 -22 -35 -34 2 -55 16 -9 30 -19 30 -22 0 -3 -14 -13 -30 -22 -38 -22 -38 -34 0 -56 16 -9 30 -19 30 -22 0 -3 -14 -13 -30 -22 -17 -9 -30 -22 -30 -28 0 -6 13 -19 30 -28 16 -9 30 -19 30 -22 0 -3 -14 -13 -30 -22 -38 -22 -38 -34 0 -56 16 -9 30 -19 30 -22 0 -3 -14 -13 -30 -22 -17 -9 -30 -22 -30 -28 0 -6 13 -19 30 -28 16 -9 30 -19 30 -22 0 -3 -14 -13 -30 -22 -38 -22 -38 -34 0 -56 16 -9 30 -19 30 -22 0 -3 -14 -13 -30 -22 -38 -22 -38 -34 0 -56 16 -9 30 -19 30 -22 0 -3 -14 -13 -30 -22 -38 -22 -38 -34 0 -56 16 -9 30 -19 30 -22 0 -3 -14 -13 -30 -22 -38 -22 -38 -34 0 -56 16 -9 30 -19 30 -22 0 -3 -14 -13 -30 -22 -38 -22 -38 -34 0 -56 16 -9 30 -19 30 -22 0 -3 -14 -13 -30 -22 -38 -22 -38 -34 0 -56 16 -9 30 -19 30 -22 0 -3 -14 -13 -31 -23 -37 -20 -34 -35 12 -62 l34 -20 -19 29 c-10 16 -14 31 -10 35 30 22 35 40 19 65 -16 24 -16 28 -1 51 15 23 15 27 0 50 -15 23 -15 27 1 51 17 26 11 43 -20 67 -7 4 -7 9 0 15 31 23 37 40 20 66 -16 24 -16 28 -1 51 15 23 15 27 0 50 -15 23 -15 27 0 50 15 23 15 27 0 50 -15 23 -15 27 0 50 15 23 15 27 0 50 -15 23 -15 27 0 50 16 24 16 27 -4 55 -12 17 -18 30 -13 30 4 0 14 9 21 20 10 17 9 25 -4 45 -15 23 -15 27 0 50 15 23 15 27 0 50 -15 23 -15 27 0 50 13 20 14 28 4 45 -7 11 -16 20 -21 20 -4 0 3 14 15 31 21 28 22 32 7 57 -15 26 -14 28 13 50 17 14 28 33 28 48 0 19 5 24 24 24 15 0 34 11 48 28 22 27 24 27 49 13 24 -13 28 -13 57 8 18 12 32 19 32 14 0 -4 9 -14 20 -21 17 -10 25 -9 45 4 23 15 27 15 50 0 23 -15 27 -15 50 0 23 15 26 15 51 -5 26 -21 35 -21 488 -21 517 0 515 0 571 -74 30 -40 48 -147 26 -160 -6 -4 -161 -17 -344 -28 -355 -21 -379 -26 -419 -79 -44 -58 -28 -146 35 -191 33 -24 55 -26 475 -52 133 -8 246 -18 251 -21 5 -3 7 -14 4 -25 -5 -19 -14 -20 -308 -20 -276 0 -307 -2 -348 -19 -41 -18 -87 -62 -87 -83 0 -6 17 4 37 22 67 59 72 60 423 60 l320 0 0 49 0 48 -72 6 c-40 4 -199 14 -353 22 -154 9 -293 21 -308 27 -89 34 -89 162 0 196 15 6 152 18 303 26 151 9 310 19 353 22 l77 7 0 60 c0 82 -18 135 -60 177 -59 59 -70 60 -578 60 l-461 0 -21 30 c-27 38 -37 38 -58 0 -9 -16 -19 -30 -22 -30 -3 0 -13 14 -22 30 -9 17 -22 30 -28 30 -6 0 -19 -13 -28 -30 -9 -16 -19 -30 -22 -30 -3 0 -13 14 -22 30 -21 37 -33 38 -55 3z"/> <path d="M1610 1634 c-11 -12 -10 -18 3 -32 16 -15 18 -15 34 0 13 14 14 20 3 32 -7 9 -16 16 -20 16 -4 0 -13 -7 -20 -16z"/> <path d="M1407 1616 c-9 -22 19 -42 37 -26 19 15 10 40 -14 40 -10 0 -20 -6 -23 -14z"/> <path d="M451 1564 c-29 -24 -56 -88 -45 -106 3 -4 14 -8 25 -8 14 0 21 9 25 29 8 39 37 64 74 64 32 0 70 -27 70 -50 0 -8 5 -23 10 -33 16 -30 40 -13 40 27 0 26 -8 43 -34 69 -30 30 -40 34 -84 34 -40 0 -57 -6 -81 -26z"/> <path d="M1803 1373 c-12 -12 -29 -38 -38 -58 -22 -46 -40 -43 -80 15 -43 62 -66 63 -107 6 -17 -25 -39 -46 -49 -46 -9 0 -28 18 -43 40 -32 49 -65 53 -101 14 -14 -15 -25 -30 -25 -34 0 -4 -8 -11 -17 -14 -11 -5 -28 5 -53 29 -45 44 -76 45 -115 5 -16 -16 -35 -30 -42 -30 -7 0 -13 -4 -13 -10 0 -20 37 -9 65 20 37 39 54 38 95 -5 49 -50 65 -47 122 23 25 31 43 27 68 -13 42 -68 73 -68 121 1 16 24 34 44 40 44 5 0 22 -20 37 -45 41 -69 86 -74 116 -11 9 19 23 42 32 51 9 8 14 20 12 27 -3 8 -12 4 -25 -9z"/> <path d="M1807 1029 c-9 -32 -9 -39 2 -39 14 0 22 30 12 47 -6 12 -9 11 -14 -8z"/> <path d="M1260 973 c0 -5 -48 -7 -107 -5 -82 2 -104 0 -90 -9 10 -6 62 -10 116 -10 105 1 120 -5 136 -57 4 -15 12 -21 21 -18 14 5 20 -9 7 -17 -5 -2 -2 -2 5 0 8 1 88 3 178 3 103 0 164 4 164 10 0 6 -63 10 -167 11 -163 0 -220 7 -195 23 19 12 14 36 -8 36 -13 0 -20 7 -20 20 0 13 -7 20 -20 20 -11 0 -20 -3 -20 -7z"/> <path d="M1848 973 c-16 -4 -18 -18 -18 -103 0 -93 1 -98 23 -104 37 -10 47 -7 47 14 0 14 7 20 21 20 17 0 20 5 16 21 -4 13 1 28 10 37 14 14 14 17 0 27 -10 7 -14 20 -10 33 4 18 1 22 -16 22 -14 0 -21 6 -21 20 0 20 -14 23 -52 13z m46 -55 c20 -28 20 -67 1 -95 -26 -38 -45 -18 -45 46 0 76 15 92 44 49z"/> <path d="M1022 778 c-17 -17 -16 -202 1 -216 18 -15 49 -17 80 -4 16 7 35 12 43 12 8 0 12 5 9 10 -3 6 -17 10 -30 10 -13 0 -27 -4 -30 -10 -3 -5 -19 -10 -36 -10 l-29 0 0 99 0 98 330 -5 c265 -4 330 -2 330 8 0 10 -52 12 -260 8 -146 -3 -260 -2 -260 3 0 14 -134 11 -148 -3z"/> <path d="M1800 679 c0 -52 3 -70 13 -67 13 5 22 78 12 115 -11 47 -25 21 -25 -48z"/> <path d="M1170 670 c0 -6 93 -10 260 -10 167 0 260 4 260 10 0 6 -93 10 -260 10 -167 0 -260 -4 -260 -10z"/> <path d="M1191 593 c-20 -22 -21 -25 -5 -18 41 16 55 17 76 3 30 -18 428 -27 428 -9 0 10 -269 19 -379 13 -24 -1 -38 4 -48 18 -19 27 -45 25 -72 -7z"/> <path d="M1830 458 c0 -149 -15 -198 -74 -243 -38 -29 -90 -42 -100 -26 -8 12 -241 16 -270 5 -46 -18 3 -24 182 -24 194 0 199 1 251 26 40 20 59 37 79 74 14 26 35 51 46 56 46 21 46 65 -1 89 -17 9 -18 13 -7 23 36 33 -1 91 -47 77 -18 -6 -20 -4 -14 14 8 25 -10 61 -30 61 -12 0 -15 -23 -15 -132z m78 -8 c2 -18 11 -44 19 -57 15 -23 14 -26 -14 -56 -16 -18 -37 -44 -46 -59 -10 -16 -24 -28 -32 -28 -12 0 -12 6 0 41 8 23 15 74 15 114 0 39 3 75 6 78 4 4 16 5 28 3 16 -2 22 -11 24 -36z"/> <path d="M1363 534 c-7 -20 3 -29 50 -44 20 -6 37 -13 37 -16 0 -2 -10 -14 -21 -25 l-21 -21 26 -26 c14 -14 28 -23 32 -19 10 9 -15 37 -34 37 -13 0 -12 3 3 20 16 18 31 20 137 20 72 0 118 4 118 10 0 6 -46 10 -118 10 -107 0 -119 2 -135 21 -14 15 -25 19 -43 15 -22 -6 -25 -4 -19 14 7 23 -3 28 -12 4z"/> <path d="M40 432 c-21 -77 -3 -149 50 -202 61 -61 66 -61 666 -58 l541 3 40 28 c23 16 51 47 64 71 12 23 31 47 42 52 22 10 35 34 19 34 -11 0 -46 -34 -113 -110 l-40 -45 -568 0 -568 0 -36 28 c-41 31 -77 93 -77 132 0 31 4 31 75 -1 54 -23 85 -26 85 -6 0 4 -20 13 -45 20 -29 8 -59 26 -85 52 l-39 39 -11 -37z"/> <path d="M1480 370 c0 -6 42 -10 105 -10 63 0 105 4 105 10 0 6 -42 10 -105 10 -63 0 -105 -4 -105 -10z"/> </g> </svg> 